<?xml version="1.0" encoding="UTF-8"?>
<svg xmlns="http://www.w3.org/2000/svg" version="1.1" xmlns:xlink="http://www.w3.org/1999/xlink" viewBox="0 0 200 200">
  <!-- Generator: Adobe Illustrator 29.6.1, SVG Export Plug-In . SVG Version: 2.1.1 Build 9)  -->
  <defs>
    <style>
      .st0 {
        fill: #463389;
      }

      .st1 {
        fill: url(#linear-gradient2);
      }

      .st2 {
        stroke-width: 3.2px;
      }

      .st2, .st3, .st4 {
        fill: none;
        stroke: #100f0f;
        stroke-linejoin: round;
      }

      .st5, .st6 {
        fill: #100f0f;
      }

      .st7 {
        fill: url(#linear-gradient1);
      }

      .st3 {
        stroke-width: 1.9px;
      }

      .st8 {
        fill: #dad8cf;
      }

      .st9 {
        fill: #8a81c6;
      }

      .st10 {
        fill: #f2f0e6;
      }

      .st11 {
        fill: #b7b5ac;
      }

      .st4 {
        stroke-width: 1.9px;
      }

      .st12 {
        fill: url(#linear-gradient4);
      }

      .st6 {
        stroke: #000;
        stroke-miterlimit: 10;
      }

      .st13 {
        fill: url(#linear-gradient3);
      }

      .st14 {
        fill: #fefcf1;
      }

      .st15 {
        display: none;
      }

      .st16 {
        fill: url(#linear-gradient);
      }
    </style>
    <linearGradient id="linear-gradient" x1="8.1" y1="88.1" x2="167.3" y2="88.1" gradientUnits="userSpaceOnUse">
      <stop offset="0" stop-color="#8a81c6"/>
      <stop offset="0" stop-color="#867cc2"/>
      <stop offset=".2" stop-color="#7b70b9"/>
      <stop offset=".3" stop-color="#695ca9"/>
      <stop offset=".4" stop-color="#503f92"/>
      <stop offset=".4" stop-color="#463389"/>
      <stop offset=".7" stop-color="#463389"/>
      <stop offset=".8" stop-color="#6253a2"/>
      <stop offset="1" stop-color="#8a81c6"/>
    </linearGradient>
    <linearGradient id="linear-gradient1" x1="123.1" y1="96.1" x2="176.5" y2="126.9" gradientUnits="userSpaceOnUse">
      <stop offset="0" stop-color="#5c459a"/>
      <stop offset=".1" stop-color="#7e6cab"/>
      <stop offset=".2" stop-color="#a194bd"/>
      <stop offset=".3" stop-color="#beb5cc"/>
      <stop offset=".4" stop-color="#d5cfd7"/>
      <stop offset=".6" stop-color="#e5e1df"/>
      <stop offset=".7" stop-color="#eeece4"/>
      <stop offset=".8" stop-color="#f2f0e6"/>
    </linearGradient>
    <linearGradient id="linear-gradient2" x1="38.1" y1="123.7" x2="89.3" y2="94.1" gradientUnits="userSpaceOnUse">
      <stop offset=".2" stop-color="#b7b5ac"/>
      <stop offset=".3" stop-color="#aeaaaa"/>
      <stop offset=".5" stop-color="#988fa5"/>
      <stop offset=".7" stop-color="#74639e"/>
      <stop offset=".9" stop-color="#5c459a"/>
    </linearGradient>
    <linearGradient id="linear-gradient3" x1="46.1" y1="163.1" x2="98.6" y2="193.4" gradientUnits="userSpaceOnUse">
      <stop offset=".5" stop-color="#b7b5ac"/>
      <stop offset=".5" stop-color="#c3c1b8"/>
      <stop offset=".7" stop-color="#e3e1d7"/>
      <stop offset=".8" stop-color="#f2f0e6"/>
    </linearGradient>
    <linearGradient id="linear-gradient4" x1="53.4" y1="157.5" x2="98.4" y2="157.5" gradientUnits="userSpaceOnUse">
      <stop offset="0" stop-color="#463389"/>
      <stop offset=".1" stop-color="#534295"/>
      <stop offset=".3" stop-color="#6b5daa"/>
      <stop offset=".5" stop-color="#7c71b9"/>
      <stop offset=".8" stop-color="#867dc2"/>
      <stop offset="1" stop-color="#8a81c6"/>
    </linearGradient>
  </defs>
  <g id="Layer_4" class="st15">
    <rect class="st6" x="-22" y="-32" width="243" height="261"/>
  </g>
  <g id="Layer_2" class="st15">
    <g id="Layer_21">
      <polygon class="st9" points="7.3 79.9 28.3 97.1 166.6 97.1 145.6 79.9 7.3 79.9"/>
      <path class="st8" d="M98.2,27.2v139.7h-45.3v-45.3h25l-.8-24.6H28.3v94.4h94.4v-69.8h69.8V27.2h-94.4,0ZM168,97.1h-45.3v-45.3h45.3v45.3Z"/>
      <path class="st8" d="M122.7,148.1v-26.4h69.8V27.2h-93.9l-.2,120.9h24.3ZM168,97.1h-45.3v-45.3h45.3v45.3Z"/>
      <polygon class="st9" points="192.6 27.2 171.6 10.1 77.2 10.1 98.2 27.2 192.6 27.2"/>
      <polygon class="st5" points="77.2 10.1 77.2 149.7 98.2 166.9 98.2 27.2 77.2 10.1"/>
      <polygon class="st9" points="77.2 149.7 98.2 166.9 52.9 166.9 52.9 149.7 77.2 149.7"/>
      <polygon class="st5" points="7.3 79.9 28.3 97.1 28.3 191.5 7.3 174.3 7.3 79.9"/>
      <polygon class="st5" points="145.6 51.8 168 51.8 168 97.1 145.6 79.9 145.6 51.8"/>
      <polyline class="st2" points="171.6 10.1 77.2 10.1 77.2 79.9 7.3 79.9 7.3 174.3 28.3 191.5 7.3 174.3 7.3 79.9 28.3 97.1 7.3 79.9 77.2 79.9 77.2 97.1 28.3 97.1 28.3 191.5 122.7 191.5 122.7 105.9 122.7 74.4 122.7 65.6 122.7 51.8 168 51.8 168 97.1 122.7 97.1 122.7 79.9 145.6 79.9 166.6 97.1 145.6 79.9 145.6 51.8"/>
      <polyline class="st2" points="52.9 149.7 77.2 149.7 98.2 166.9 77.2 149.7 77.2 10.1 98.2 27.2 77.2 10.1 171.6 10.1 192.6 27.2"/>
      <line class="st3" x1="166.6" y1="97.1" x2="122.7" y2="97.1"/>
      <polyline class="st2" points="77.9 121.7 52.9 121.7 52.9 166.9 98.2 166.9 98.2 130.5 98.2 121.7 98.2 112.9 98.2 27.2 192.6 27.2 192.6 121.7 122.7 121.7 192.6 121.7"/>
      <path class="st14" d="M172.3,5.7l23.5,19.3-.4,100.6h-69.7v69.1l-98.2.2-23.2-18.8v-99.5h69.4V5.7h98.6M173.5,2.5h-102.9v70.9H1.2v104.2l25.3,20.5,102.5-.2v-69.1h69.7l.4-105.3-25.5-21h0Z"/>
    </g>
  </g>
  <g id="Layer_3">
    <polygon class="st16" points="8.1 79.6 29 96.7 167.3 96.7 145.5 79.6 8.1 79.6"/>
    <path class="st11" d="M98.4,27.3v138.7h-45v-45h24.8l-.8-24.4H29v93.8h93.8v-69.4h69.4V27.3h-93.8ZM167.7,96.7h-45v-45h45v45Z"/>
    <path class="st10" d="M122.8,190.4v-69.4h69.4V27.3h-93.3l-.5,163.2h24.4ZM167.7,96.7h-45v-45h45v45Z"/>
    <polygon class="st7" points="122.8 96.7 167.7 96.7 179.9 121.1 122.8 121.1 122.8 96.7"/>
    <rect class="st1" x="36.6" y="96.7" width="54.3" height="24.4"/>
    <rect class="st13" x="44.4" y="166" width="55.8" height="24.4"/>
    <polygon class="st9" points="192.2 27.3 171.3 10.2 77.5 10.2 98.4 27.3 192.2 27.3"/>
    <polygon class="st0" points="77.5 10.2 77.5 149 98.4 166 98.4 27.3 77.5 10.2"/>
    <polygon class="st12" points="77.5 149 98.4 166 53.4 166 53.4 149 77.5 149"/>
    <polygon class="st0" points="8.1 79.6 29 96.7 29 190.4 8.1 173.4 8.1 79.6"/>
    <polygon class="st0" points="145.5 51.7 167.7 51.7 167.7 96.7 145.5 79.6 145.5 51.7"/>
    <polyline class="st4" points="171.3 10.2 77.5 10.2 77.5 79.6 8.1 79.6 8.1 173.4 29 190.4 8.1 173.4 8.1 79.6 29 96.7 8.1 79.6 77.5 79.6 77.5 96.7 29 96.7 29 190.4 122.8 190.4 122.8 105.4 122.8 74.2 122.8 65.4 122.8 51.7 167.7 51.7 167.7 96.7 122.8 96.7 122.8 79.6 145.5 79.6 167.7 96.7 145.5 79.6 145.5 51.7"/>
    <polyline class="st4" points="53.4 149 77.5 149 98.4 166 77.5 149 77.5 10.2 98.4 27.3 77.5 10.2 171.3 10.2 191.7 26.3"/>
    <line class="st4" x1="166.3" y1="96.7" x2="122.8" y2="96.7"/>
    <polyline class="st4" points="78.3 121.1 53.4 121.1 53.4 166 98.4 166 98.4 129.8 98.4 121.1 98.4 112.3 98.4 27.3 192.2 27.3 192.2 121.1 122.8 121.1 192.2 121.1"/>
    <rect class="st10" x="118.9" y="97.6" width="70.7" height="22.5"/>
    <path class="st14" d="M172.3,7.9l22,17.5v98.5s-65.4,0-65.4,0h-3.8v69.1l-96.7.2-22.7-18.4v-98h69.4V7.9h97.2M173.6,4.1h-102.2v69H2v103.5l25.1,20.3,101.8-.3v-69.1h69.2V23.5c0,0-24.5-19.4-24.5-19.4h0Z"/>
  </g>
</svg>