<?xml version="1.0" encoding="UTF-8"?>
<svg id="Layer_2" xmlns="http://www.w3.org/2000/svg" version="1.1" viewBox="0 0 200 200">
  <!-- Generator: Adobe Illustrator 29.6.1, SVG Export Plug-In . SVG Version: 2.1.1 Build 9)  -->
  <defs>
    <style>
      .st0 {
        fill: #100f0f;
      }

      .st1 {
        stroke-width: 3.2px;
      }

      .st1, .st2 {
        fill: none;
        stroke: #100f0f;
        stroke-linejoin: round;
      }

      .st3 {
        fill: #dad8cf;
      }

      .st4 {
        fill: #8a81c6;
      }

      .st5 {
        fill: #fefcf1;
      }

      .st2 {
        stroke-width: 1.9px;
      }
    </style>
  </defs>
  <g id="Layer_21" data-name="Layer_2">
    <polygon class="st4" points="7.3 79.9 28.3 97.1 166.6 97.1 145.6 79.9 7.3 79.9"/>
    <path class="st3" d="M98.2,27.2v139.7h-45.3v-45.3h25l-.8-24.6H28.3v94.4h94.4v-69.8h69.8V27.2h-94.4,0ZM168,97.1h-45.3v-45.3h45.3v45.3Z"/>
    <path class="st3" d="M122.7,148.1v-26.4h69.8V27.2h-93.9l-.2,120.9h24.3ZM168,97.1h-45.3v-45.3h45.3v45.3Z"/>
    <polygon class="st4" points="192.6 27.2 171.6 10.1 77.2 10.1 98.2 27.2 192.6 27.2"/>
    <polygon class="st0" points="77.2 10.1 77.2 149.7 98.2 166.9 98.2 27.2 77.2 10.1"/>
    <polygon class="st4" points="77.2 149.7 98.2 166.9 52.9 166.9 52.9 149.7 77.2 149.7"/>
    <polygon class="st0" points="7.3 79.9 28.3 97.1 28.3 191.5 7.3 174.3 7.3 79.9"/>
    <polygon class="st0" points="145.6 51.8 168 51.8 168 97.1 145.6 79.9 145.6 51.8"/>
    <polyline class="st1" points="171.6 10.1 77.2 10.1 77.2 79.9 7.3 79.9 7.3 174.3 28.3 191.5 7.3 174.3 7.3 79.9 28.3 97.1 7.3 79.9 77.2 79.9 77.2 97.1 28.3 97.1 28.3 191.5 122.7 191.5 122.7 105.9 122.7 74.4 122.7 65.6 122.7 51.8 168 51.8 168 97.1 122.7 97.1 122.7 79.9 145.6 79.9 166.6 97.1 145.6 79.9 145.6 51.8"/>
    <polyline class="st1" points="52.9 149.7 77.2 149.7 98.2 166.9 77.2 149.7 77.2 10.1 98.2 27.2 77.2 10.1 171.6 10.1 192.6 27.2"/>
    <line class="st2" x1="166.6" y1="97.1" x2="122.7" y2="97.1"/>
    <polyline class="st1" points="77.9 121.7 52.9 121.7 52.9 166.9 98.2 166.9 98.2 130.5 98.2 121.7 98.2 112.9 98.2 27.2 192.6 27.2 192.6 121.7 122.7 121.7 192.6 121.7"/>
    <path class="st5" d="M172.3,5.7l23.5,19.3-.4,100.6h-69.7v69.1l-98.2.2-23.2-18.8v-99.5h69.4V5.7h98.6M173.5,2.5h-102.9v70.9H1.2v104.2l25.3,20.5,102.5-.2v-69.1h69.7l.4-105.3-25.5-21h0Z"/>
  </g>
</svg>